<svg xmlns="http://www.w3.org/2000/svg" xmlns:xlink="http://www.w3.org/1999/xlink" width="1921" height="1002" preserveAspectRatio="none">
	<defs>
		<linearGradient x1="99.2134713%" y1="69.8176438%" x2="0%" y2="36.3964982%" id="A">
			<stop stop-color="#851b8b" offset="0%"/>
			<stop stop-color="#3f2ec7" offset="100%"/>
		</linearGradient>
		<path d="M976.666 1001.034c230.15 0 544.84-33.155 944.072-99.464l-.395-444.565V-.966H-.262L0 399.476-.262 893.868l30.162 7.083c276.463 63.532 600.417 100.082 946.766 100.082z" id="B"/>
	</defs>
	<g fill-rule="evenodd">
		<mask id="C" fill="#fff">
			<use xlink:href="#B"/>
		</mask>
		<g fill-rule="nonzero">
			<use fill="url(#A)" xlink:href="#B"/>
			<path d="M2220.45-774.24c237.288 24.717 527.174 95.803 821.19 198.874 284.768 99.83 555.474 223.556 757.028 346.556 214.433 130.86 339.285 253.45 348.446 350.523 26.7 283-547.17 538.98-1167.072 605.544l-.006-.025 101.604 34.4c284.768 99.83 555.474 223.556 757.028 346.556 214.433 130.86 339.285 253.45 348.446 350.523 38.298 405.79-1158.154 755.993-1954.59 571.97-191.414-44.228-349.443-125.93-470.135-238.536-111.456-103.99-188.74-232.457-228.294-373.955a814.02 814.02 0 0 1-21.901-104.296l.01.03c-33.796 1.82-67.6 3.045-101.295 3.648l.067-.027c7.24 374.06-1094.873 691.852-1831.58 521.626-179.292-41.428-327.314-117.957-440.365-223.436-104.4-97.408-176.79-217.745-213.84-350.287-66.177-236.738-13.692-492.504 134.91-671.29-24.818-137.572 16.213-280.6 110.554-375.666 49.5-49.876 152.548-66.066 295.767-51.147 129.565 13.497 287.836 52.308 448.36 108.583 84.004 29.45 165.768 62.708 240.547 97.656 13.693-181.463 87.614-354.068 212.967-480.368C458.747-197.92 647.3-227.546 909.45-200.24c165.346 17.223 356.23 56.96 556.257 114.347-14.327-221.86 62.05-442.21 213.585-594.9 90.454-91.137 279.017-120.763 541.16-93.457zm754.76 1502.003l-2.03.223c-45.746 4.806-91.73 8.58-137.733 11.253l.086-.01c-34.777 288.572-678.03 539.482-1321.327 574.586l-.01-.03c4.97 34.826 12.225 69.535 21.822 103.868 39.457 141.147 116.547 269.294 227.732 373.03 120.43 112.362 278.14 193.9 469.22 238.05 795.304 183.762 1990.262-166.003 1952.15-569.833-9.08-96.2-133.588-218.464-347.497-349.004-201.425-122.92-472.005-246.59-756.647-346.376l-105.767-35.758zM-939.425 596.72l-.896 1.083C-1087 775.966-1138.595 1029.84-1072.884 1264.91c36.953 132.192 109.15 252.208 213.28 349.363 112.788 105.234 260.493 181.6 439.45 222.95 735.643 169.98 1836.393-147.45 1829.13-519.645l-.066.03c-183.23 3.143-363.75-12.115-527.387-49.925-191.414-44.228-349.443-125.93-470.135-238.536-46.68-43.553-87.366-91.4-121.797-142.7l.01.003c-225.22 96.954-572.7 144.52-838.578 83.087-104.562-24.16-190.895-68.796-256.836-130.32-60.9-56.822-103.13-127.022-124.744-204.34-3.533-12.64-6.487-25.372-8.87-38.154zM513.092 703.518l-2.04 5.858c-24.948 66.14-106.76 127.415-219.575 176.265l-.022-.007c34.303 51.06 74.822 98.687 121.298 142.05 120.43 112.362 278.14 193.9 469.22 238.05 163.483 37.774 343.853 53.004 526.928 49.855l.024-.03c-.12-3.99-.37-7.987-.747-12-8.502-90.086-125.107-204.583-325.44-326.84-155.506-94.9-355.02-190.278-569.646-273.21zM372.44-108.073l-2.726 2.7C244.53 20.754 170.77 193.216 157.26 374.493c62.876 29.455 120.763 60.094 170.836 90.65 117.17 71.505 185.4 138.5 190.42 191.686 1.425 15.095-.27 30.047-4.803 44.776l-.03-.003c214.78 82.985 414.452 178.433 570.097 273.418 200.858 122.577 317.806 237.41 326.4 328.36a189.89 189.89 0 0 1 .755 12.145l-.026.03c33.612-.603 67.313-1.824 101.015-3.64l-.006-.03c-33.852-241.825 42.007-489.043 207.383-655.668 37.874-38.16 92.948-65.536 163.42-82.464-59.11-34.437-112.632-74.11-160.325-118.606-111.456-103.99-188.74-232.457-228.294-373.955-15.204-54.387-24.54-109.715-28.25-164.962-200.166-57.464-391.186-97.25-556.6-114.48-258.973-26.976-445.862 1.7-536.806 90.177zm1512.8 683.3l-1.126.263c-70.56 16.825-125.63 44.102-163.4 82.146-164.963 166.21-240.625 412.877-206.798 654.15l.007.03c642.304-35.032 1284.597-285.3 1319.594-572.466l-.084.016c-221.615 12.726-443.543-.07-640.906-45.673-114.704-26.503-217.42-66.463-307.296-118.466zm-2785.144-22.11c-13.234 13.334-25.855 27.222-37.85 41.612 2.43 13.28 5.47 26.5 9.136 39.62 21.516 76.97 63.552 146.848 124.183 203.417 65.678 61.28 151.695 105.75 255.922 129.834 265.366 61.316 612.312 13.743 837.023-82.793l-.015-.004c-47.222-70.736-82.58-148-105.39-229.6-6.49-23.22-11.913-46.612-16.284-70.096l.01-.003c-202.04-60.147-395.507-101.673-561.455-118.96-245-25.52-421.096 2.15-505.282 86.973zm1068.89 32.63l.567 3.052a810.7 810.7 0 0 0 15.478 65.866c22.786 81.51 58.122 158.686 105.327 229.328l.023.007c115.925-50.094 198.97-113.253 220.893-181.176-45.16-17.43-90.982-34.304-137.2-50.507-68.842-24.134-137.442-46.395-205.088-66.57zm1720.193-11.44l-1.1.257c89.26 51.382 191.168 90.903 304.896 117.18 197.28 45.583 419.15 58.338 640.69 45.582l.087-.014a201.41 201.41 0 0 0 .371-41.4c-.38-4.016-.96-8.077-1.738-12.182-205.82-59.883-402.454-101.294-572.14-118.97-149.105-15.532-274.315-12.612-371.076 9.547zm945.362 110.047l.448 2.566c.482 2.958.86 5.893 1.136 8.805 1.312 13.898 1.175 27.73-.344 41.48l-.087.007c45.016-2.623 90.014-6.3 134.788-10.966v-.01a4728.22 4728.22 0 0 0-135.939-41.879zM1680.712-679.374c-151.284 152.427-227.463 372.522-212.966 594.068 86.38 24.824 174.45 52.935 262.895 83.94 284.768 99.83 555.474 223.556 757.028 346.556 204.557 124.832 327.594 242.14 346.447 336.95l-.01-.005c46.684 13.596 93.837 28.14 141.253 43.572l.003.012c620.643-65.714 1196.402-321.56 1169.763-603.818-9.08-96.2-133.588-218.464-347.497-349.004-201.425-122.92-472.005-246.59-756.647-346.376C2747.1-676.502 2457.362-747.55 2220.244-772.25c-261.59-27.25-449.63 2.295-539.532 92.876zM157.115 376.63l-.345 4.838c-4.407 66.847-.626 134.825 11.784 202.058l.01-.002c67.996 20.263 136.957 42.632 206.162 66.894 46.186 16.19 91.977 33.054 137.105 50.468l.037.004c4.4-14.44 6.052-29.09 4.657-43.874-4.938-52.323-72.824-118.98-189.47-190.166-49.824-30.406-107.404-60.897-169.94-90.22zm1310.78-459.815l.473 6.65c4.015 52.66 13.163 105.352 27.653 157.188 39.457 141.147 116.547 269.294 227.732 373.03 48.072 44.852 102.085 84.792 161.8 119.404 97.457-22.9 223.99-26.048 374.91-10.328 169.54 17.66 365.93 58.99 571.492 118.746-19.37-93.868-141.934-210.494-345.316-334.61C2285.2 223.977 2014.622 100.307 1729.98.522c-88.17-30.91-175.97-58.94-262.085-83.706zM-827.928 219.902c-93.492 94.2-134.38 235.8-110.294 372.25 11.71-13.98 24.008-27.477 36.887-40.453 84.738-85.38 261.365-113.13 506.91-87.553 165.8 17.272 359.038 58.716 560.836 118.74-12.645-68.95-16.234-138.677-11.245-207.163l.01.001C80.27 340.685-1.68 307.335-85.884 277.816c-160.386-56.227-318.51-95.002-447.904-108.48-142.665-14.86-245.19 1.247-294.14 50.567z" fill-opacity=".1" fill="#e2e2e2" mask="url(#C)"/>
		</g>
	</g>
</svg>